<!--?xml version="1.0" standalone="no"?--><svg version="1.0" xmlns="http://www.w3.org/2000/svg" width="300.000000pt" height="300.000000pt" viewBox="0 0 300.000000 300.000000" preserveAspectRatio="xMidYMid meet">
<metadata>
  <rdf:rdf xmlns:rdf="http://www.w3.org/1999/02/22-rdf-syntax-ns#" xmlns:rdfs="http://www.w3.org/2000/01/rdf-schema#" xmlns:dc="http://purl.org/dc/elements/1.1/">
    <rdf:description dc:title="scientific logo" dc:publisher="Hiox" dc:date="2015-03-25" dc:format="image/svg+xml" dc:language="en">
      <dc:creator>
        <rdf:bag>
          <rdf:li>svgimages.com</rdf:li>
        </rdf:bag>
      </dc:creator>
    </rdf:description>
  </rdf:rdf>
</metadata>
<g transform="translate(0.000000,300.000000) scale(0.100000,-0.100000)" fill="#26B24E" stroke="none">
<path d="M343 2639 c-18 -5 -39 -19 -48 -32 -22 -32 -175 -509 -175 -547 0
-130 173 -145 213 -18 5 15 10 15 64 -2 298 -95 292 -94 314 -74 11 9 16 21
12 25 -11 9 -387 129 -406 129 -9 0 -21 -16 -27 -37 -24 -74 -74 -97 -106 -48
-15 23 -13 34 60 262 93 290 90 281 120 289 59 15 82 -35 51 -110 -12 -29 -13
-37 -3 -40 7 -3 30 -10 51 -16 39 -12 43 -22 27 -66 -8 -19 -8 -30 0 -38 7 -7
15 3 27 32 18 46 27 49 79 27 28 -11 35 -19 29 -32 -3 -10 -9 -30 -12 -45 -9
-44 15 -33 28 12 13 44 16 45 72 29 40 -11 45 -26 27 -73 -6 -17 -6 -27 1 -32
5 -3 17 13 26 35 18 45 19 46 75 29 33 -10 38 -15 33 -32 -15 -54 -17 -76 -7
-76 6 0 16 18 22 40 12 45 22 47 85 25 42 -15 59 -9 53 21 -3 20 -49 37 -372
140 l-178 57 6 38 c15 91 -53 152 -141 128z" id="node1" class="node"></path>
<path d="M1061 2218 c-32 -101 -57 -186 -55 -189 5 -9 236 -12 257 -3 9 3 17
12 17 19 0 7 18 66 40 131 22 65 40 128 40 140 0 20 -13 26 -99 53 -55 17
-108 31 -120 31 -18 0 -28 -24 -80 -182z" id="node2" class="node"></path>
<path d="M1403 2268 c-6 -10 -83 -236 -83 -245 0 -2 25 -3 55 -3 l55 0 0 -37
c0 -117 -81 -252 -176 -295 -29 -14 -30 -22 -4 -58 26 -37 71 -54 123 -47 71
10 85 35 177 318 46 140 83 267 84 283 1 28 -2 30 -99 62 -115 37 -121 38
-132 22z" id="node3" class="node"></path>
<path d="M1670 2114 c-6 -14 -24 -70 -42 -123 -17 -53 -48 -149 -69 -214 -44
-131 -45 -143 -25 -192 38 -90 179 -99 224 -14 7 13 46 127 87 253 61 185 73
232 63 242 -12 11 -198 74 -219 74 -5 0 -14 -12 -19 -26z" id="node4" class="node"></path>
<path d="M1885 1794 c-72 -222 -75 -248 -32 -297 59 -68 161 -58 204 21 11 20
35 82 53 137 18 55 44 132 57 171 14 40 23 80 21 89 -2 12 -34 27 -107 51 -57
19 -109 34 -116 34 -8 0 -40 -82 -80 -206z" id="node5" class="node"></path>
<path d="M812 1969 c-25 -3 -52 -15 -65 -27 -21 -22 -22 -29 -25 -295 l-3
-273 141 -140 140 -139 0 -366 c0 -325 2 -368 16 -373 20 -8 778 -8 798 0 14
5 16 45 16 347 l0 341 140 141 140 142 0 81 c0 61 3 80 13 77 6 -2 86 -27 177
-55 91 -29 204 -65 253 -81 101 -33 146 -36 202 -10 133 60 173 237 77 343
-19 22 -47 45 -61 52 -51 26 -512 168 -527 162 -8 -3 -14 -14 -14 -25 0 -17
21 -27 133 -62 507 -160 503 -153 107 -159 l-315 -5 -17 -55 c-29 -92 -47
-124 -82 -148 -85 -58 -164 -49 -236 28 l-45 47 -33 -25 c-71 -55 -189 -30
-241 50 l-24 38 -32 -20 c-84 -52 -192 -27 -240 53 l-24 42 -63 -5 c-59 -5
-63 -7 -63 -29 0 -21 9 -27 59 -44 81 -27 165 -109 195 -190 18 -49 21 -80 21
-202 0 -138 -1 -145 -20 -145 -19 0 -20 7 -20 128 0 150 -14 208 -65 276 -40
51 -105 89 -173 101 l-43 7 3 71 3 72 91 6 c110 7 166 34 219 107 32 45 61
128 53 153 -4 12 -483 19 -566 8z" id="node6" class="node"></path>
</g>
<g transform="translate(0.000000,300.000000) scale(0.100000,-0.100000)" fill="#FFFFFF" stroke="none">

</g>
</svg>